<?xml version="1.0" encoding="UTF-8"?><svg xmlns="http://www.w3.org/2000/svg" viewBox="0 0 320 320"><defs><style>.cls-1{fill:#d4fd55;}</style></defs><g id="Rectangle"><rect class="cls-1" x="23.83" y="171.15" width="176.29" height="118.1"/></g><g id="Coloured"><path d="M80.61,237.19c-2.86,2.86-2.86,7.5,0,10.36,2.86,2.86,7.5,2.86,10.36,0,2.86-2.86,2.86-7.5,0-10.36-2.86-2.86-7.5-2.86-10.36,0Zm120.58-75.04h0c19.06,5.93,39.67,.85,53.77-13.25,12.9-12.9,18.31-31.27,14.47-49.13-.75-3.48-3.24-6.16-6.67-7.17-3.43-1.01-7.12-.07-9.64,2.45l-24.79,24.79-16.2-4.34-4.34-16.2,24.42-24.42c2.55-2.54,3.47-6.26,2.41-9.7-1.06-3.45-3.93-6.02-7.49-6.69-17.44-3.31-35.33,2.2-47.86,14.73-14.1,14.1-19.18,34.7-13.25,53.77,.45,1.45,.08,2.96-.98,3.94l-14.66,13.6-14.66-13.6c-1.58-1.46-4.03-1.42-5.55,.1l-4.87,4.87-38.87-38.87-3.71-15.1c-.28-1.12-1.02-2.07-2.05-2.6l-24.12-12.48c-1.55-.8-3.43-.51-4.67,.72l-11.64,11.64c-1.23,1.23-1.52,3.12-.72,4.67l12.48,24.12c.53,1.02,1.48,1.77,2.6,2.05l15.1,3.71,38.87,38.87-4.96,4.96c-1.52,1.52-1.57,3.97-.1,5.55l12.41,13.37-44.24,41.04c-8,7.43-12.89,17.58-13.07,27.15-.13,7.05,2.31,13.45,6.87,18.01,4.44,4.45,10.63,6.88,17.47,6.88,.18,0,.36,0,.54,0,9.58-.18,19.73-5.06,27.15-13.07l39.75-42.85,39.75,42.85c7.43,8,17.58,12.89,27.15,13.07,.18,0,.36,0,.54,0,6.84,0,13.03-2.43,17.47-6.88,4.56-4.56,7-10.96,6.87-18.01-.18-9.58-5.06-19.73-13.07-27.15l-44.24-41.04,12.41-13.37c.98-1.05,2.49-1.43,3.93-.98Zm-126.63-54.84c-.52-.52-1.17-.88-1.87-1.06l-14.42-3.54-10.3-19.91,7.5-7.5,19.91,10.3,3.54,14.42c.17,.71,.54,1.36,1.06,1.87l39.66,39.66-5.42,5.42-39.65-39.66Zm37.42,53.21l21.12-21.12,11.4,10.58-22.73,21.09-9.79-10.55Zm111.67,62.9c6.44,5.98,10.37,13.99,10.51,21.44,.06,3.44-.67,8.35-4.53,12.21-3.86,3.86-8.77,4.57-12.21,4.53-7.45-.14-15.46-4.07-21.44-10.51l-40.16-43.29,23.58-25.42,44.24,41.04Zm-32.26-65.72l-43.74,47.15h0s-.02,.04-.04,.05l-42.85,46.19c-5.98,6.44-13.99,10.37-21.44,10.51-3.45,.05-8.35-.67-12.21-4.53-3.86-3.86-4.59-8.77-4.53-12.21,.14-7.45,4.07-15.46,10.51-21.44l93.38-86.63c3.33-3.09,4.55-7.76,3.18-12.18-5.04-16.22-.72-33.75,11.27-45.74,8.62-8.62,20.22-13.33,32.19-13.33,2.83,0,5.69,.26,8.53,.8,.93,.18,1.24,.89,1.34,1.19,.11,.36,.21,1.06-.42,1.69l-26.05,26.05c-1.01,1.01-1.41,2.48-1.04,3.86l5.54,20.66c.37,1.38,1.45,2.46,2.83,2.83l20.66,5.54c1.38,.37,2.85-.02,3.86-1.04l26.42-26.42c.65-.65,1.42-.52,1.72-.43,.34,.1,.95,.39,1.12,1.18,3.27,15.2-1.33,30.82-12.3,41.8-11.99,11.99-29.52,16.31-45.74,11.27-4.42-1.38-9.08-.16-12.18,3.18Z"/></g></svg>